<svg class="svg-icon" style="width: 1.0009765625em; height: 1em;vertical-align: middle;fill: currentColor;overflow: hidden;" viewBox="0 0 1025 1024" version="1.1" xmlns="http://www.w3.org/2000/svg"><path fill='#c8553d' d="M883.056 327.59a31.96 31.96 0 0 0-31.96 31.96v567.291a31.96 31.96 0 0 1-31.96 31.96h-607.24a31.96 31.96 0 0 1-31.96-31.96V357.953a31.96 31.96 0 0 0-63.921 0V926.84a95.88 95.88 0 0 0 95.88 95.88h607.241a95.88 95.88 0 0 0 95.88-95.88v-567.29a31.96 31.96 0 0 0-31.96-31.96z m110.902-120.808H876.345V63.92A63.92 63.92 0 0 0 812.425 0H210.616a63.92 63.92 0 0 0-63.92 63.92v142.862H31.96a31.96 31.96 0 0 0 0 63.92h961.998a31.96 31.96 0 0 0 0-63.92z m-181.534 0H210.617V63.92h601.807z"  /><path fill='#c8553d' d="M360.19 818.177V373.293a34.836 34.836 0 0 0-31.96-37.073 34.836 34.836 0 0 0-31.96 37.073v444.884a34.836 34.836 0 0 0 31.96 37.074 34.836 34.836 0 0 0 31.96-37.074z m187.925 0V373.293a34.836 34.836 0 0 0-31.96-37.073 34.836 34.836 0 0 0-31.96 37.073v444.884a34.836 34.836 0 0 0 31.96 37.074 34.836 34.836 0 0 0 31.96-37.074z m188.564 0V373.293a31.96 31.96 0 1 0-63.92 0v444.884a31.96 31.96 0 1 0 63.92 0z"  /></svg>