<?xml version="1.0" encoding="utf-8"?>
<!-- Svg Vector Icons : http://www.onlinewebfonts.com/icon -->
<!DOCTYPE svg PUBLIC "-//W3C//DTD SVG 1.1//EN" "http://www.w3.org/Graphics/SVG/1.1/DTD/svg11.dtd">
<svg version="1.1" xmlns="http://www.w3.org/2000/svg" xmlns:xlink="http://www.w3.org/1999/xlink" x="0px" y="0px" viewBox="0 0 1000 1000" enable-background="new 0 0 1000 1000" xml:space="preserve">
<metadata> Svg Vector Icons : http://www.onlinewebfonts.com/icon </metadata>
<g><path fill="#0D124C" d="M214.3,741.4h241.4v37.1H214.3V741.4z"/><path fill="#0D124C" d="M214.3,370h445.6v37.1H214.3V370z"/><path fill="#0D124C" d="M214.3,202.9h445.6V240H214.3V202.9z"/><path fill="#0D124C" d="M214.3,555.7h241.4v37.1H214.3V555.7z"/><path fill="#0D124C" d="M65.7,880.6V119.4c0-25.6,20.8-46.4,46.4-46.4h687c25.6,0,46.4,20.8,46.4,46.4v232.1h55.7V119.4c0-56.3-45.8-102.1-102.1-102.1h-687C55.8,17.2,10,63,10,119.4v761.3c0,56.3,45.8,102.1,102.1,102.1h232.1v-55.7H112.1C86.5,927.1,65.7,906.3,65.7,880.6z"/><path fill="#0D124C" d="M983.6,519.8l-46.5-46.5l-46.5-46.5c-8.6-8.6-22.4-8.6-31,0L476.2,810.3c-2.5,2-4.4,4.7-5.3,8l-42.4,141.2c-1.8,6,0,12.2,4.1,16.4l1.2,0.9l0.9,1.1c4.1,4.1,10.4,5.9,16.4,4.1l141.2-42.4c3.3-1,6.1-2.9,8.1-5.4l383.4-383.4C992.1,542.2,992.1,528.3,983.6,519.8z M578.5,909.4l-110.7,33.3l33.3-110.8l296.6-296.6l77.5,77.5L578.5,909.4z M944.9,543l-54.2,54.2l-77.5-77.5l54.2-54.2c4.3-4.3,11.2-4.3,15.5,0l31.3,31.3l30.7,30.7C949.1,531.8,949.1,538.8,944.9,543z"/></g>
</svg>